<?xml version="1.0" encoding="UTF-8"?>
<svg version="1.1" xmlns="http://www.w3.org/2000/svg" width="381" height="342">
<path d="M0 0 C0.96421875 0.34933594 1.9284375 0.69867188 2.921875 1.05859375 C4.19788003 1.51833086 5.47392374 1.97796063 6.75 2.4375 C7.38421875 2.66759766 8.0184375 2.89769531 8.671875 3.13476562 C11.75412076 4.24244769 14.79836438 5.29661036 18 6 C18 6.66 18 7.32 18 8 C18.53367187 8.15855469 19.06734375 8.31710938 19.6171875 8.48046875 C32.67403231 12.56920389 44.57339936 19.83620048 55.8203125 27.51953125 C57.3833453 28.58116106 58.96371987 29.61742909 60.5546875 30.63671875 C61.38226563 31.16910156 62.20984375 31.70148438 63.0625 32.25 C64.19365234 32.96929687 64.19365234 32.96929687 65.34765625 33.703125 C65.89292969 34.13109375 66.43820313 34.5590625 67 35 C67 35.66 67 36.32 67 37 C67.5671875 37.26167969 68.134375 37.52335937 68.71875 37.79296875 C74.77769324 40.99881372 79.94688083 45.49933827 84 51 C86.38347477 53.44306164 88.79939546 55.81566069 91.3125 58.125 C93 60 93 60 93 63 C93.66 63 94.32 63 95 63 C105.95220967 81.78059322 111.61463157 101.42028562 106 123 C103.2497988 131.54722982 100.18291388 140.04350937 96 148 C95.34 148 94.68 148 94 148 C93.88527344 148.57234375 93.77054687 149.1446875 93.65234375 149.734375 C92.93817644 152.21471656 91.92692128 154.06368697 90.5625 156.25 C90.13066406 156.95640625 89.69882813 157.6628125 89.25390625 158.390625 C88.63322266 159.18726563 88.63322266 159.18726563 88 160 C87.34 160 86.68 160 86 160 C85.75636719 160.55171875 85.51273437 161.1034375 85.26171875 161.671875 C82.59146132 166.59903731 78.59780783 170.72981497 75 175 C74.33742188 175.78890625 73.67484375 176.5778125 72.9921875 177.390625 C70.1943167 180.6608636 67.60973227 183.59839314 64 186 C63.34 186 62.68 186 62 186 C62 186.66 62 187.32 62 188 C60.3203125 189.7265625 60.3203125 189.7265625 58.125 191.625 C57.40570313 192.25664062 56.68640625 192.88828125 55.9453125 193.5390625 C54 195 54 195 52 195 C52 195.66 52 196.32 52 197 C50.3603279 198.36639342 48.68889872 199.6949419 47 201 C46.278125 201.7425 45.55625 202.485 44.8125 203.25 C43 205 43 205 41 205 C41 205.66 41 206.32 41 207 C39.36395804 208.37073786 37.69321939 209.70055256 36 211 C35.2884375 211.7425 35.2884375 211.7425 34.5625 212.5 C32.27884582 214.69230801 29.65386768 216.28972972 27 218 C27.62678171 214.33827525 28.64451846 211.1181005 30.0625 207.6875 C30.42472656 206.80449219 30.78695312 205.92148437 31.16015625 205.01171875 C31.43730469 204.34785156 31.71445313 203.68398438 32 203 C32.66 203 33.32 203 34 203 C34 201.68 34 200.36 34 199 C34.66 199 35.32 199 36 199 C36.226875 198.360625 36.45375 197.72125 36.6875 197.0625 C38.19048854 193.55552674 40.00013264 190.3054038 41.87890625 186.98828125 C42.61846029 185.67666798 43.32661013 184.34677973 44 183 C44.66 183 45.32 183 46 183 C46.226875 182.33097656 46.45375 181.66195312 46.6875 180.97265625 C48.37805255 177.14375597 50.63270796 173.87683714 53 170.4375 C53.897981 169.12516491 54.79388228 167.81140385 55.6875 166.49609375 C56.28111328 165.63262329 56.28111328 165.63262329 56.88671875 164.75170898 C58.0695454 162.89057276 59.01711621 160.97278818 60 159 C61.138626 157.25519901 62.27824922 155.51102096 63.42749023 153.77319336 C76.29096446 134.09447619 82.31838304 111.066596 77.8125 87.6875 C75.54201173 78.39235553 71.80160518 69.94669671 66.91796875 61.7421875 C66 60 66 60 66 58 C65.34 58 64.68 58 64 58 C60 52.58823529 60 52.58823529 60 50 C59.34 50 58.68 50 58 50 C56.7734375 48.49609375 56.7734375 48.49609375 55.375 46.4375 C51.41282838 40.95665817 46.61247972 36.74165315 41 33 C41 32.34 41 31.68 41 31 C40.01 30.67 39.02 30.34 38 30 C37.505 29.01 37.505 29.01 37 28 C36.01 27.67 35.02 27.34 34 27 C34 26.34 34 25.68 34 25 C33.34 25 32.68 25 32 25 C32 24.34 32 23.68 32 23 C30.68 22.67 29.36 22.34 28 22 C28 21.34 28 20.68 28 20 C27.44441406 19.74347656 26.88882813 19.48695312 26.31640625 19.22265625 C22.75268347 17.34163563 19.60001093 14.91669963 16.33984375 12.55859375 C14.00588292 10.85599119 14.00588292 10.85599119 11 10 C11 9.34 11 8.68 11 8 C10.2575 7.9175 9.515 7.835 8.75 7.75 C5.46476803 6.85402764 4.25401846 5.48719278 2 3 C1.34 2.67 0.68 2.34 0 2 C0 1.34 0 0.68 0 0 Z " fill="#0A2740" transform="translate(109,84)"/>
<path d="M0 0 C-0.5260925 3.78786597 -1.38103911 6.17152224 -4 9 C-4.66 9 -5.32 9 -6 9 C-6 9.66 -6 10.32 -6 11 C-6.94359375 11.43570312 -7.8871875 11.87140625 -8.859375 12.3203125 C-15.22204579 15.26697968 -21.57320182 18.23752619 -27.875 21.3125 C-29.32519531 22.01826172 -29.32519531 22.01826172 -30.8046875 22.73828125 C-33.13438551 23.80824709 -33.13438551 23.80824709 -34 26 C-28.82970075 29.44686616 -22.05216759 28.64281244 -16 28 C-11.54039025 26.97346659 -7.31296307 25.51332038 -3 24 C-1.42187425 23.60365601 0.16095023 23.2249861 1.75 22.875 C2.8225 22.58625 3.895 22.2975 5 22 C5.33 21.34 5.66 20.68 6 20 C7.97888961 19.27306096 9.97954558 18.60183749 12 18 C12 17.34 12 16.68 12 16 C12.53367188 15.72027344 13.06734375 15.44054687 13.6171875 15.15234375 C18.03247882 12.77664202 22.09927084 10.24459914 26.125 7.25 C30.21400745 4.30463682 32.97803524 3.10917315 38 3 C36.68 5.64 35.36 8.28 34 11 C33.34 11 32.68 11 32 11 C31.74992188 11.55558594 31.49984375 12.11117188 31.2421875 12.68359375 C21.88213466 30.13803191 1.01079697 45.28108701 -17 53 C-17.99 53 -18.98 53 -20 53 C-20 53.66 -20 54.32 -20 55 C-23.29091841 55.79479812 -26.58286842 56.58524337 -29.875 57.375 C-30.7928125 57.59671875 -31.710625 57.8184375 -32.65625 58.046875 C-70.06124375 67.00300026 -109.79170532 62.47896198 -145 47 C-145 46.67 -145 46.34 -145 46 C-140.17623165 45.84439457 -135.89599738 45.91635879 -131.1875 47 C-115.2517456 50.41305063 -99.6827524 46.39377291 -86 38 C-84.65169329 36.68181011 -83.31387169 35.35251497 -82 34 C-81.34 34 -80.68 34 -80 34 C-80 33.34 -80 32.68 -80 32 C-78.48772933 30.6697891 -76.91330976 29.40972409 -75.3125 28.1875 C-72.38007886 25.91041484 -69.55643764 23.69545841 -67 21 C-66.34 20.34 -65.68 19.68 -65 19 C-64.34 19 -63.68 19 -63 19 C-63 18.34 -63 17.68 -63 17 C-62.01 17 -61.02 17 -60 17 C-59.505 15.515 -59.505 15.515 -59 14 C-49.00492773 7.71112971 -38.05196681 5.32499149 -26.54736328 3.421875 C-24.0051548 3.0008537 -21.4695795 2.55063114 -18.93359375 2.09375 C-17.33099565 1.8109855 -15.72814041 1.52967352 -14.125 1.25 C-13.02901489 1.05809082 -13.02901489 1.05809082 -11.91088867 0.86230469 C-7.89687719 0.19666224 -4.06743877 -0.12750592 0 0 Z " fill="#0A2740" transform="translate(235,265)"/>
<path d="M0 0 C22.32692881 -0.51710871 42.98936228 5.12271942 63.2421875 14.12109375 C63.2421875 14.78109375 63.2421875 15.44109375 63.2421875 16.12109375 C64.1290625 16.38921875 65.0159375 16.65734375 65.9296875 16.93359375 C73.31911058 19.58263221 73.31911058 19.58263221 75.5546875 23.30859375 C75.7815625 23.90671875 76.0084375 24.50484375 76.2421875 25.12109375 C72.90885417 23.78776042 69.57552083 22.45442708 66.2421875 21.12109375 C66.2421875 20.46109375 66.2421875 19.80109375 66.2421875 19.12109375 C65.62472656 18.93933594 65.00726563 18.75757812 64.37109375 18.5703125 C61.65796928 17.76504725 58.94940204 16.94600677 56.2421875 16.12109375 C55.37335938 15.858125 54.50453125 15.59515625 53.609375 15.32421875 C52.80757812 15.0715625 52.00578125 14.81890625 51.1796875 14.55859375 C50.44621094 14.33042969 49.71273437 14.10226563 48.95703125 13.8671875 C47.2421875 13.12109375 47.2421875 13.12109375 46.2421875 11.12109375 C44.31128857 10.83867625 42.37760938 10.56759185 40.43603516 10.37158203 C37.21821425 10.00417893 34.09475368 9.23893508 30.9296875 8.55859375 C13.48490902 5.23786695 -5.54246134 5.73453064 -22.7578125 10.12109375 C-23.46583008 10.29801758 -24.17384766 10.47494141 -24.90332031 10.65722656 C-33.82543745 12.94403746 -42.05638907 15.88021127 -50.31640625 19.984375 C-52.7578125 21.12109375 -52.7578125 21.12109375 -54.7578125 21.12109375 C-55.0878125 21.78109375 -55.4178125 22.44109375 -55.7578125 23.12109375 C-60.14398928 25.94854655 -64.83727288 28.37509582 -69.7578125 30.12109375 C-69.7578125 30.78109375 -69.7578125 31.44109375 -69.7578125 32.12109375 C-70.7478125 32.63671875 -71.7378125 33.15234375 -72.7578125 33.68359375 C-80.00578054 37.82109777 -87.13997188 44.19433282 -91.7578125 51.12109375 C-92.4178125 51.12109375 -93.0778125 51.12109375 -93.7578125 51.12109375 C-94.0053125 51.66765625 -94.2528125 52.21421875 -94.5078125 52.77734375 C-96.55873663 56.62282649 -99.27880354 59.98006706 -101.8828125 63.46484375 C-103.42413516 65.64838418 -104.65945433 67.69555279 -105.7578125 70.12109375 C-106.4178125 70.12109375 -107.0778125 70.12109375 -107.7578125 70.12109375 C-108.16580078 71.43400391 -108.16580078 71.43400391 -108.58203125 72.7734375 C-109.69224027 75.93439806 -111.01039572 78.72427934 -112.5703125 81.68359375 C-118.66748946 93.77410281 -122.25846659 105.87486446 -124.7578125 119.12109375 C-124.93578369 120.06001465 -125.11375488 120.99893555 -125.29711914 121.96630859 C-126.13694252 127.71734074 -125.94239852 133.50686181 -125.9453125 139.30859375 C-125.95755859 140.57251953 -125.96980469 141.83644531 -125.98242188 143.13867188 C-125.99417165 150.70944664 -125.40250442 157.73479373 -123.7578125 165.12109375 C-123.58991211 165.97767578 -123.42201172 166.83425781 -123.24902344 167.71679688 C-120.16517407 182.81110531 -114.02712554 199.20690819 -104.7890625 211.58984375 C-103.7578125 213.12109375 -103.7578125 213.12109375 -103.7578125 215.12109375 C-103.0978125 215.12109375 -102.4378125 215.12109375 -101.7578125 215.12109375 C-100.4378125 217.76109375 -99.1178125 220.40109375 -97.7578125 223.12109375 C-99.7578125 223.12109375 -99.7578125 223.12109375 -101.16796875 221.828125 C-128.00687051 191.05538894 -136.53907234 155.49278813 -134.171875 115.42578125 C-133.75332683 112.085293 -132.87739996 109.28608138 -131.7578125 106.12109375 C-131.437563 104.5223879 -131.14436538 102.91794462 -130.8828125 101.30859375 C-130.05770319 96.9961084 -128.70883835 93.34906695 -126.8203125 89.3984375 C-125.71500574 87.0293425 -124.79928887 84.63134938 -123.8828125 82.18359375 C-122.0653003 77.5492997 -119.68895163 73.44792838 -117.02734375 69.25 C-115.61851081 67.06034089 -115.61851081 67.06034089 -114.7578125 64.12109375 C-114.0978125 64.12109375 -113.4378125 64.12109375 -112.7578125 64.12109375 C-112.5103125 63.41597656 -112.2628125 62.71085937 -112.0078125 61.984375 C-110.59677591 58.75221932 -108.8327399 56.15780473 -106.7578125 53.30859375 C-106.0565625 52.33277344 -105.3553125 51.35695312 -104.6328125 50.3515625 C-104.0140625 49.61550781 -103.3953125 48.87945312 -102.7578125 48.12109375 C-102.0978125 48.12109375 -101.4378125 48.12109375 -100.7578125 48.12109375 C-100.49806641 47.53231445 -100.23832031 46.94353516 -99.97070312 46.33691406 C-98.6740278 43.96802813 -97.31910695 42.50664847 -95.3515625 40.66796875 C-94.69027344 40.04921875 -94.02898437 39.43046875 -93.34765625 38.79296875 C-92.65800781 38.15875 -91.96835938 37.52453125 -91.2578125 36.87109375 C-90.56816406 36.22140625 -89.87851563 35.57171875 -89.16796875 34.90234375 C-84.01506696 30.12109375 -84.01506696 30.12109375 -81.7578125 30.12109375 C-81.7578125 29.46109375 -81.7578125 28.80109375 -81.7578125 28.12109375 C-77.37319712 25.12109375 -77.37319712 25.12109375 -74.7578125 25.12109375 C-74.7578125 24.46109375 -74.7578125 23.80109375 -74.7578125 23.12109375 C-71.10565832 21.09371682 -67.43623615 19.10039296 -63.7578125 17.12109375 C-62.83226563 16.61835937 -61.90671875 16.115625 -60.953125 15.59765625 C-41.95025155 5.64878345 -21.35239889 0.93756992 0 0 Z " fill="#0C7F86" transform="translate(178.7578125,26.87890625)"/>
<path d="M0 0 C0.99 0.495 0.99 0.495 2 1 C-4.5 7.5 -4.5 7.5 -11 14 C-11.721875 14.763125 -12.44375 15.52625 -13.1875 16.3125 C-15 18 -15 18 -17 18 C-17.495 19.485 -17.495 19.485 -18 21 C-19.63447967 22.36206639 -21.26991752 23.72299934 -22.91015625 25.078125 C-27.10520108 28.935998 -30.46929685 33.54371321 -34 38 C-34.66 38.78246094 -35.32 39.56492188 -36 40.37109375 C-50.18463752 57.32974304 -60.87268298 78.16712214 -67.09765625 99.33203125 C-68 102 -68 102 -70 104 C-70.33872513 102.58461283 -70.67074624 101.16762037 -71 99.75 C-71.185625 98.96109375 -71.37125 98.1721875 -71.5625 97.359375 C-72 95 -72 95 -72 91 C-72.66 90.67 -73.32 90.34 -74 90 C-73.505 89.01 -73.505 89.01 -73 88 C-73.66 87.67 -74.32 87.34 -75 87 C-76.39463134 83.39036593 -77.32823171 79.80668696 -78 76 C-78.66 76 -79.32 76 -80 76 C-83.05362463 70.62562066 -83.05362463 70.62562066 -82.8125 67.8125 C-82 66 -82 66 -80 63 C-79.34 63 -78.68 63 -78 63 C-77.5978125 62.13375 -77.5978125 62.13375 -77.1875 61.25 C-75.97070811 58.94449957 -74.69666121 56.97943808 -73 55 C-72.34 55 -71.68 55 -71 55 C-70.76539063 54.43925781 -70.53078125 53.87851563 -70.2890625 53.30078125 C-66.22624276 46.0492636 -56.0528691 35.6842897 -48 33 C-48 32.34 -48 31.68 -48 31 C-46.42578125 29.6328125 -46.42578125 29.6328125 -44.3125 28.125 C-41.95790305 26.4230808 -39.67556332 24.73095495 -37.4375 22.875 C-35.05820535 21.04477335 -32.60100829 19.6220184 -29.9765625 18.17578125 C-27.77327799 16.86513177 -25.75449714 15.39150821 -23.6875 13.875 C-18.80858001 10.41058859 -13.70931105 7.43162019 -8.5 4.5 C-7.69780029 4.04222168 -6.89560059 3.58444336 -6.0690918 3.11279297 C-5.314104 2.69400879 -4.55911621 2.27522461 -3.78125 1.84375 C-2.7612793 1.27430664 -2.7612793 1.27430664 -1.72070312 0.69335938 C-1.15287109 0.46455078 -0.58503906 0.23574219 0 0 Z " fill="#0B263F" transform="translate(294,78)"/>
<path d="M0 0 C0.66 0 1.32 0 2 0 C2.6490968 3.18684428 3.29367948 6.37458595 3.9375 9.5625 C4.21110352 10.90538086 4.21110352 10.90538086 4.49023438 12.27539062 C4.66748047 13.15517578 4.84472656 14.03496094 5.02734375 14.94140625 C5.18968506 15.74263916 5.35202637 16.54387207 5.51928711 17.36938477 C6.98524563 25.39158034 7.18617532 33.21307652 7.18530273 41.34033203 C7.1874742 43.59817801 7.20562625 45.85552237 7.22460938 48.11328125 C7.27293863 60.20306955 5.89730198 71.67244587 2.75 83.375 C2.53384033 84.18171143 2.31768066 84.98842285 2.0949707 85.81958008 C-1.63702895 99.2986847 -7.59238969 111.62387959 -14 124 C-14.66 124 -15.32 124 -16 124 C-16.103125 124.556875 -16.20625 125.11375 -16.3125 125.6875 C-17.14178408 128.4769101 -18.34299056 130.6139064 -20 133 C-20.66 133 -21.32 133 -22 133 C-22.66 134.65 -23.32 136.3 -24 138 C-24.66 138 -25.32 138 -26 138 C-26.2475 138.556875 -26.495 139.11375 -26.75 139.6875 C-29.4536914 144.68932909 -33.15433484 148.13167645 -37.51171875 151.66796875 C-39.12882545 152.95079945 -39.12882545 152.95079945 -40 155 C-40.66 155 -41.32 155 -42 155 C-42.33 155.99 -42.66 156.98 -43 158 C-44.32467746 158.6837045 -45.65863633 159.34964186 -47 160 C-47.66 160.99 -48.32 161.98 -49 163 C-50.68327591 164.00175444 -52.37108088 164.99760966 -54.09179688 165.93359375 C-55.91441354 166.9521697 -57.63160495 168.04786451 -59.359375 169.21875 C-66.1286502 173.7868032 -72.86417295 178.30083612 -81 180 C-81.99 179.67 -82.98 179.34 -84 179 C-83.34 179 -82.68 179 -82 179 C-82 178.34 -82 177.68 -82 177 C-81.34 177 -80.68 177 -80 177 C-80 176.34 -80 175.68 -80 175 C-79.0925 174.401875 -78.185 173.80375 -77.25 173.1875 C-73.94182247 171.2027393 -73.94182247 171.2027393 -71.9375 168.375 C-69.78603889 165.73772509 -68.21161612 164.98132715 -65 164 C-65 163.34 -65 162.68 -65 162 C-64.34 162 -63.68 162 -63 162 C-62.67 161.01 -62.34 160.02 -62 159 C-60.58203125 157.640625 -60.58203125 157.640625 -58.8125 156.25 C-55.52525875 153.55797938 -52.89137536 150.64880936 -50.26171875 147.3203125 C-49.84535156 146.88460937 -49.42898438 146.44890625 -49 146 C-48.34 146 -47.68 146 -47 146 C-46.7313916 145.40324463 -46.4627832 144.80648926 -46.18603516 144.19165039 C-44.99317908 141.98739577 -43.8356648 140.64378247 -42.0234375 138.93359375 C-41.43836426 138.3705957 -40.85329102 137.80759766 -40.25048828 137.22753906 C-39.63157715 136.63682617 -39.01266602 136.04611328 -38.375 135.4375 C-32.55613073 129.76048153 -27.19057527 124.02767281 -23 117 C-23 116.34 -23 115.68 -23 115 C-22.55615967 114.56308838 -22.11231934 114.12617676 -21.6550293 113.67602539 C-19.6767788 111.67267834 -18.72362403 109.72578124 -17.51953125 107.18359375 C-17.07802734 106.25482422 -16.63652344 105.32605469 -16.18164062 104.36914062 C-15.50391602 102.91797852 -15.50391602 102.91797852 -14.8125 101.4375 C-14.34908203 100.46619141 -13.88566406 99.49488281 -13.40820312 98.49414062 C-10.97435127 93.93384749 -10.97435127 93.93384749 -10 89 C-9.34 89 -8.68 89 -8 89 C-7.67 86.03 -7.34 83.06 -7 80 C-6.34 80 -5.68 80 -5 80 C-4.87625 79.071875 -4.7525 78.14375 -4.625 77.1875 C-3.70935624 70.81668284 -2.6547601 64.47468384 -1.0078125 58.25 C3.22535597 41.50069113 3.40796953 21.88549178 0 5 C-0.0370279 3.3337447 -0.04759962 1.66598681 0 0 Z " fill="#0C7E86" transform="translate(320,137)"/>
<path d="M0 0 C0 0.66 0 1.32 0 2 C0.66 2 1.32 2 2 2 C7.38190933 9.2655776 8.15844065 16.11497879 7 25 C4.38033462 30.86805046 -0.87670132 35.66518241 -6.796875 38.1953125 C-10.40505374 39.1017574 -13.18389678 39.00164319 -16.875 38.625 C-18.02742188 38.51414063 -19.17984375 38.40328125 -20.3671875 38.2890625 C-21.23601562 38.19367188 -22.10484375 38.09828125 -23 38 C-23 37.34 -23 36.68 -23 36 C-23.5775 35.9175 -24.155 35.835 -24.75 35.75 C-27.74733457 34.75088848 -29.01378942 33.44965971 -31 31 C-31.70164642 29.01200182 -32.37372872 27.01301483 -33 25 C-33.66 24.67 -34.32 24.34 -35 24 C-36.7855483 19.23853788 -35.56853189 14.65900562 -34 10 C-30.69828468 2.94972066 -26.63413795 -0.66748275 -19.25 -3.375 C-12.76040354 -4.79498848 -5.90683617 -2.75652355 0 0 Z " fill="#0A2740" transform="translate(223,85)"/>
<path d="M0 0 C1.14193406 3.42580219 0.79534354 4.79172093 0.078125 8.27734375 C-1.19517079 15.40158376 -1.29529932 22.34103395 -1.25 29.5625 C-1.25773437 30.79935547 -1.26546875 32.03621094 -1.2734375 33.31054688 C-1.25765647 40.77102923 -0.60556522 47.71910428 1 55 C1.16781982 55.85706543 1.33563965 56.71413086 1.50854492 57.59716797 C4.59583023 72.69158528 10.7299695 89.08485273 19.96875 101.46875 C21 103 21 103 21 105 C21.66 105 22.32 105 23 105 C24.32 107.64 25.64 110.28 27 113 C25 113 25 113 23.58984375 111.70703125 C3.4817945 88.65170291 -8.64844456 60.66632681 -10 30 C-7.14206684 32.85793316 -7.59200059 35.14665584 -7.375 39.125 C-7.30023438 40.40632813 -7.22546875 41.68765625 -7.1484375 43.0078125 C-7.09945312 43.99523437 -7.05046875 44.98265625 -7 46 C-5.68 45.34 -4.36 44.68 -3 44 C-3.01571045 43.0934668 -3.0314209 42.18693359 -3.04760742 41.25292969 C-3.09928972 37.83099439 -3.13661492 34.40948459 -3.16479492 30.98730469 C-3.17971429 29.51718527 -3.20005727 28.047109 -3.22631836 26.57714844 C-3.3872419 17.32562281 -2.84195549 8.90714347 0 0 Z " fill="#16787E" transform="translate(54,137)"/>
<path d="M0 0 C0 0.66 0 1.32 0 2 C0.886875 2.268125 1.77375 2.53625 2.6875 2.8125 C10.07692308 5.46153846 10.07692308 5.46153846 12.3125 9.1875 C12.539375 9.785625 12.76625 10.38375 13 11 C8 9 8 9 3 7 C3 6.34 3 5.68 3 5 C2.38253906 4.81824219 1.76507813 4.63648437 1.12890625 4.44921875 C-1.58421822 3.6439535 -4.29278546 2.82491302 -7 2 C-7.86882812 1.73703125 -8.73765625 1.4740625 -9.6328125 1.203125 C-10.43460937 0.95046875 -11.23640625 0.6978125 -12.0625 0.4375 C-12.79597656 0.20933594 -13.52945313 -0.01882812 -14.28515625 -0.25390625 C-16 -1 -16 -1 -17 -3 C-18.8285082 -3.27384498 -20.66056194 -3.53144379 -22.5 -3.71826172 C-27.36726618 -4.2667798 -32.17862867 -5.20865264 -37 -6.0625 C-38.06089844 -6.24876953 -39.12179688 -6.43503906 -40.21484375 -6.62695312 C-42.81020738 -7.08289538 -45.40524335 -7.54061826 -48 -8 C-46.68 -8.66 -45.36 -9.32 -44 -10 C-44 -10.66 -44 -11.32 -44 -12 C-55.22 -12 -66.44 -12 -78 -12 C-78 -12.33 -78 -12.66 -78 -13 C-50.19137199 -15.76114037 -25.46337827 -11.31343439 0 0 Z " fill="#18787E" transform="translate(242,41)"/>
<path d="M0 0 C0.12577799 6.5404557 0.12577799 6.5404557 -0.48632812 8.77685547 C-1.22176459 11.95978535 -1.20560462 15.05669701 -1.28125 18.3203125 C-1.29965942 19.0201828 -1.31806885 19.7200531 -1.33703613 20.44113159 C-1.41548589 23.42626137 -1.4835948 26.41160386 -1.55224609 29.39697266 C-1.60393749 31.57986699 -1.66117754 33.76256665 -1.71875 35.9453125 C-1.74904297 37.25000488 -1.77933594 38.55469727 -1.81054688 39.89892578 C-2 43 -2 43 -3 45 C-3.99 45 -4.98 45 -6 45 C-6.19916016 43.51886719 -6.19916016 43.51886719 -6.40234375 42.0078125 C-6.57894531 40.72648437 -6.75554688 39.44515625 -6.9375 38.125 C-7.19853516 36.21074219 -7.19853516 36.21074219 -7.46484375 34.2578125 C-7.81433227 31.12440546 -7.81433227 31.12440546 -9 29 C-9.35374627 21.68924373 -9.35374627 21.68924373 -8.015625 19.08203125 C-6.75596499 16.49972824 -6.6934174 14.42284676 -6.5625 11.5625 C-6.24441424 7.30810301 -5.81566887 4.37880264 -3 1 C-1 0 -1 0 0 0 Z " fill="#0A8288" transform="translate(53,138)"/>
<path d="M0 0 C2.62316667 1.91420271 3.74836336 3.36252052 4.9375 6.375 C5.0221688 9.93108969 3.83947665 12.00233435 2 15 C-1.09173752 16.54586876 -3.59429552 16.29359521 -7 16 C-9.4375 14.5 -9.4375 14.5 -11 12 C-11.60984064 9.19243175 -11.66017005 6.80141726 -11 4 C-7.74010218 0.16482609 -4.95707565 -0.84375756 0 0 Z " fill="#0C7F87" transform="translate(166,211)"/>
<path d="M0 0 C2.875 1.5625 2.875 1.5625 5 4 C5.52368962 7.66582737 5.45259656 9.98831357 3.9375 13.375 C1.00693033 15.83289714 -1.22089384 16 -5 16 C-8.54971764 14.07080563 -9.72940536 12.86590284 -10.9375 9 C-11.0027414 5.86841304 -10.8013814 4.52193396 -9 2 C-5.48746854 -0.34168764 -4.13530644 -0.49623677 0 0 Z " fill="#117C81" transform="translate(173,190)"/>
<path d="M0 0 C4.42690311 1.44355536 4.42690311 1.44355536 5.875 3.9375 C6.39739098 6.7177809 6.48551782 9.16713142 5.875 11.9375 C3.75 14 3.75 14 0.875 14.9375 C-2.26081361 14.81206746 -4.30835071 14.42748958 -7 12.8125 C-8.84809221 9.73234632 -8.61560718 7.43307617 -8.125 3.9375 C-5.45043116 0.79094842 -4.15592269 -0.08311845 0 0 Z " fill="#0D7F86" transform="translate(172.125,169.0625)"/>
<path d="M0 0 C1.17755859 0.09667969 1.17755859 0.09667969 2.37890625 0.1953125 C4.4375 0.875 4.4375 0.875 5.734375 2.734375 C6.90641569 6.30258775 6.08917384 9.57165231 4.4375 12.875 C-2.51764019 14.35724299 -2.51764019 14.35724299 -6 12.75 C-7.94780763 10.41263085 -8.3413692 8.89712099 -8.5625 5.875 C-8.3125 3.6875 -8.3125 3.6875 -7.5625 1.875 C-4.31530737 -0.28979509 -3.68455971 -0.37634712 0 0 Z " fill="#0C8088" transform="translate(152.5625,231.125)"/>
<path d="M0 0 C2.97 0.495 2.97 0.495 6 1 C6.33 2.65 6.66 4.3 7 6 C6.401875 6.061875 5.80375 6.12375 5.1875 6.1875 C2.12856542 7.3236757 1.44958901 9.17330142 0 12 C0.66 12 1.32 12 2 12 C1.67 14.97 1.34 17.94 1 21 C0.34 21 -0.32 21 -1 21 C-1.33 23.97 -1.66 26.94 -2 30 C-2.99 30 -3.98 30 -5 30 C-7.43273978 26.1637565 -8.14061021 24.67060255 -7.1875 20.125 C-6.795625 19.09375 -6.40375 18.0625 -6 17 C-4.68 17.33 -3.36 17.66 -2 18 C-2.185625 16.700625 -2.37125 15.40125 -2.5625 14.0625 C-2.87890625 11.84765625 -2.87890625 11.84765625 -3 10 C-2.67 9.67 -2.34 9.34 -2 9 C-1.60851239 7.48834346 -1.26027543 5.96530368 -0.9375 4.4375 C-0.76089844 3.61121094 -0.58429688 2.78492188 -0.40234375 1.93359375 C-0.26957031 1.29550781 -0.13679688 0.65742188 0 0 Z " fill="#09838A" transform="translate(310,228)"/>
<path d="M0 0 C1 3 1 3 0.5 4.875 C-0.1206595 7.51280286 0.34952865 9.3981146 1 12 C1.99 12 2.98 12 4 12 C4.33 10.68 4.66 9.36 5 8 C6.33931924 10.67863848 5.51160625 12.11477341 4.61401367 14.85131836 C4.39076416 15.4985083 4.16751465 16.14569824 3.9375 16.8125 C3.71360596 17.47451416 3.48971191 18.13652832 3.2590332 18.81860352 C0.96051204 25.43049625 -1.91636211 31.7161606 -5 38 C-5.66 38 -6.32 38 -7 38 C-6.67 36.35 -6.34 34.7 -6 33 C-5.34 33 -4.68 33 -4 33 C-4.309375 31.88625 -4.309375 31.88625 -4.625 30.75 C-5.04408751 27.67669159 -4.61949011 26.57213134 -3 24 C-3.66 24 -4.32 24 -5 24 C-4.02391783 21.07175348 -2.89213369 19.38573379 -1 17 C-0.01 17.33 0.98 17.66 2 18 C0.60746468 14.51866169 -0.63176216 13.52113967 -4 12 C-4.33 11.34 -4.66 10.68 -5 10 C-4.34 10 -3.68 10 -3 10 C-2.95101563 9.36191406 -2.90203125 8.72382813 -2.8515625 8.06640625 C-2.77679688 7.24011719 -2.70203125 6.41382813 -2.625 5.5625 C-2.55539062 4.73878906 -2.48578125 3.91507813 -2.4140625 3.06640625 C-2.27742188 2.38449219 -2.14078125 1.70257813 -2 1 C-1.34 0.67 -0.68 0.34 0 0 Z " fill="#10777E" transform="translate(315,216)"/>
<path d="M0 0 C6.6 0.6 6.6 0.6 9 3 C9.3125 6.5 9.3125 6.5 9 10 C5.50434664 12.33043558 4.1134271 12.58763244 0 12 C-2.375 9.5 -2.375 9.5 -4 7 C-1.125 1.125 -1.125 1.125 0 0 Z " fill="#0A8289" transform="translate(163,151)"/>
<path d="M0 0 C0.66 0.33 1.32 0.66 2 1 C-2.33333333 5.33333333 -6.66666667 9.66666667 -11 14 C-12.0828125 15.1446875 -12.0828125 15.1446875 -13.1875 16.3125 C-15 18 -15 18 -17 18 C-17.33 18.99 -17.66 19.98 -18 21 C-19.5625 22.6875 -19.5625 22.6875 -21 24 C-21.99 23.67 -22.98 23.34 -24 23 C-24 21.02 -24 19.04 -24 17 C-22.02 17.99 -22.02 17.99 -20 19 C-16.75283938 15.51216486 -16.75283938 15.51216486 -16 11 C-16.66 10.67 -17.32 10.34 -18 10 C-15.04894616 8.2995208 -12.08809878 6.61688907 -9.125 4.9375 C-8.28324219 4.45216797 -7.44148438 3.96683594 -6.57421875 3.46679688 C-5.76855469 3.01240234 -4.96289062 2.55800781 -4.1328125 2.08984375 C-3.38918457 1.66566162 -2.64555664 1.24147949 -1.87939453 0.80444336 C-1.25919434 0.53897705 -0.63899414 0.27351074 0 0 Z " fill="#0A2035" transform="translate(294,78)"/>
<path d="M0 0 C2.875 0.875 2.875 0.875 4.875 3.875 C4.6875 6.9375 4.6875 6.9375 3.875 9.875 C0.875 11.875 0.875 11.875 -2.3125 11.5 C-3.7046875 11.190625 -3.7046875 11.190625 -5.125 10.875 C-7.125 5.125 -7.125 5.125 -7.125 2.875 C-4.66644727 0.32188755 -3.59074013 -0.14362961 0 0 Z " fill="#15747A" transform="translate(142.125,249.125)"/>
<path d="M0 0 C4.82376835 -0.15560543 9.10400262 -0.08364121 13.8125 1 C22.79757612 2.96417943 31.94340697 2.12205577 41 1 C37.43616634 4.56383366 33.12028524 4.22158003 28.25 4.5625 C26.49429688 4.68818359 26.49429688 4.68818359 24.703125 4.81640625 C23.81109375 4.87699219 22.9190625 4.93757813 22 5 C21.67 6.32 21.34 7.64 21 9 C18.24676762 8.07123493 15.49768065 7.13243408 12.75 6.1875 C11.58404297 5.79594727 11.58404297 5.79594727 10.39453125 5.39648438 C6.47108736 4.03836918 3.14762977 2.81763632 0 0 Z " fill="#0E2337" transform="translate(90,311)"/>
<path d="M0 0 C0 0.99 0 1.98 0 3 C0.33 3.66 0.66 4.32 1 5 C2.423125 4.4740625 2.423125 4.4740625 3.875 3.9375 C7 3 7 3 9 4 C2.13252698 8.72885957 -4.77623852 13.1107575 -13 15 C-13.99 14.67 -14.98 14.34 -16 14 C-15.34 14 -14.68 14 -14 14 C-14 13.34 -14 12.68 -14 12 C-13.34 12 -12.68 12 -12 12 C-12 11.34 -12 10.68 -12 10 C-10.63875 9.1028125 -10.63875 9.1028125 -9.25 8.1875 C-6.07136594 6.04803477 -4.2871077 4.02224945 -2 1 C-1.34 0.67 -0.68 0.34 0 0 Z " fill="#0D757B" transform="translate(252,302)"/>
<path d="M0 0 C1.406617 2.90700847 1.04092665 3.87722005 0 7 C-2.98459129 8.95542188 -4.26414791 9 -8 9 C-9.5625 6.1875 -9.5625 6.1875 -11 3 C-10 0 -10 0 -8.3125 -1.3125 C-4.95355602 -2.31110497 -3.09468552 -1.51295736 0 0 Z " fill="#0B8189" transform="translate(163,137)"/>
<path d="M0 0 C-3.75 2 -3.75 2 -6 2 C-6 2.66 -6 3.32 -6 4 C-5.34 4.33 -4.68 4.66 -4 5 C-5.65 5 -7.3 5 -9 5 C-7.93354885 6.29633621 -7.93354885 6.29633621 -5.4375 6.0625 C-4.633125 6.041875 -3.82875 6.02125 -3 6 C-6.50538557 7.96301592 -10.13351728 8.95902388 -14 10 C-14.33 9.34 -14.66 8.68 -15 8 C-14.01 8 -13.02 8 -12 8 C-12.33 6.68 -12.66 5.36 -13 4 C-14.65 4 -16.3 4 -18 4 C-18 4.66 -18 5.32 -18 6 C-26.42857143 8.28571429 -26.42857143 8.28571429 -31 8 C-22.65727765 2.4381851 -10.02258347 -0.21174472 0 0 Z " fill="#15787E" transform="translate(163,29)"/>
<path d="M0 0 C6.33333333 1.33333333 6.33333333 1.33333333 9 4 C9.125 7.125 9.125 7.125 9 10 C4.07695542 10 1.12039836 9.74693224 -3 7 C-3.375 4.5 -3.375 4.5 -3 2 C-2.01 1.34 -1.02 0.68 0 0 Z " fill="#098289" transform="translate(168,191)"/>
<path d="M0 0 C0.66 0.33 1.32 0.66 2 1 C1.030625 1.61875 0.06125 2.2375 -0.9375 2.875 C-4.02835362 4.65678846 -4.02835362 4.65678846 -5 7 C-2.03 7.495 -2.03 7.495 1 8 C-2 10 -2 10 -4.125 10.5 C-4.74375 10.665 -5.3625 10.83 -6 11 C-6.33 11.66 -6.66 12.32 -7 13 C-7.33 11.68 -7.66 10.36 -8 9 C-11.5219721 8.91995518 -14.61981469 8.95994298 -18 10 C-15.43244849 7.02235346 -12.50758828 5.58580899 -9 3.875 C-7.4221875 3.09769531 -7.4221875 3.09769531 -5.8125 2.3046875 C-3 1 -3 1 0 0 Z " fill="#0F787E" transform="translate(130,37)"/>
<path d="M0 0 C2.5625 0.1875 2.5625 0.1875 4.5625 2.1875 C4.96014263 4.17571313 5.30025349 6.17694339 5.5625 8.1875 C0.18944301 9.15641192 0.18944301 9.15641192 -2.4375 9.1875 C-4.4375 7.75 -4.4375 7.75 -5.4375 6.1875 C-3.15091463 0.24237805 -3.15091463 0.24237805 0 0 Z " fill="#0E787D" transform="translate(133.4375,266.8125)"/>
<path d="M0 0 C0.66 0.33 1.32 0.66 2 1 C1.505 1.763125 1.01 2.52625 0.5 3.3125 C-1.24368308 5.92363751 -1.24368308 5.92363751 -1 9 C-2.63064764 10.05771739 -4.30280873 11.05273046 -6 12 C-6.53625 12.53625 -7.0725 13.0725 -7.625 13.625 C-9 15 -9 15 -12 16 C-13.66710346 17.49985609 -13.66710346 17.49985609 -15 19 C-15.99 18.67 -16.98 18.34 -18 18 C-17.34 18 -16.68 18 -16 18 C-16 17.34 -16 16.68 -16 16 C-15.34 16 -14.68 16 -14 16 C-13.67 15.01 -13.34 14.02 -13 13 C-11.58203125 11.640625 -11.58203125 11.640625 -9.8125 10.25 C-6.07775116 7.17886356 -3.03178992 3.75364466 0 0 Z " fill="#0F7D84" transform="translate(271,283)"/>
<path d="M0 0 C0.96421875 0.34933594 1.9284375 0.69867188 2.921875 1.05859375 C4.19788003 1.51833086 5.47392374 1.97796063 6.75 2.4375 C7.38421875 2.66759766 8.0184375 2.89769531 8.671875 3.13476562 C11.75412076 4.24244769 14.79836438 5.29661036 18 6 C18 6.66 18 7.32 18 8 C18.66 8.33 19.32 8.66 20 9 C19.01 9.33 18.02 9.66 17 10 C17.33 10.99 17.66 11.98 18 13 C17.401875 12.690625 16.80375 12.38125 16.1875 12.0625 C13.91043228 10.89790296 13.91043228 10.89790296 11 10 C11 9.34 11 8.68 11 8 C10.2575 7.9175 9.515 7.835 8.75 7.75 C5.46476803 6.85402764 4.25401846 5.48719278 2 3 C1.34 2.67 0.68 2.34 0 2 C0 1.34 0 0.68 0 0 Z " fill="#0A2339" transform="translate(109,84)"/>
<path d="M0 0 C3.3 0.99 6.6 1.98 10 3 C10 3.66 10 4.32 10 5 C10.886875 5.268125 11.77375 5.53625 12.6875 5.8125 C20.07692308 8.46153846 20.07692308 8.46153846 22.3125 12.1875 C22.539375 12.785625 22.76625 13.38375 23 14 C18 12 18 12 13 10 C13 9.34 13 8.68 13 8 C12.30132812 7.79503906 11.60265625 7.59007812 10.8828125 7.37890625 C9.97273437 7.10949219 9.06265625 6.84007812 8.125 6.5625 C7.22007812 6.29566406 6.31515625 6.02882813 5.3828125 5.75390625 C3 5 3 5 1 4 C0.67 2.68 0.34 1.36 0 0 Z " fill="#0B656E" transform="translate(232,38)"/>
<path d="M0 0 C0.66 0 1.32 0 2 0 C1 3 1 3 -0.9375 4 C-1.618125 4.33 -2.29875 4.66 -3 5 C-3.99 6.485 -3.99 6.485 -5 8 C-6.5859375 9.16796875 -6.5859375 9.16796875 -8.375 10.1875 C-8.96023438 10.53167969 -9.54546875 10.87585938 -10.1484375 11.23046875 C-12 12 -12 12 -16 12 C-15.67 11.34 -15.34 10.68 -15 10 C-14.01 10 -13.02 10 -12 10 C-12 9.34 -12 8.68 -12 8 C-12.66 7.67 -13.32 7.34 -14 7 C-13 6 -13 6 -10.4375 5.9375 C-9.2309375 5.9684375 -9.2309375 5.9684375 -8 6 C-7.34 4.68 -6.68 3.36 -6 2 C-4.02 2 -2.04 2 0 2 C0 1.34 0 0.68 0 0 Z " fill="#10787E" transform="translate(276,292)"/>
<path d="M0 0 C1.81015838 3.07305958 2.24223653 5.08294445 1.875 8.625 C1.81054688 9.40101563 1.74609375 10.17703125 1.6796875 10.9765625 C1 13 1 13 -0.9296875 14.0859375 C-1.61289062 14.38757813 -2.29609375 14.68921875 -3 15 C-3.66 15.99 -4.32 16.98 -5 18 C-5.19953041 13.71009608 -4.66617076 10.92040178 -3 7 C-2.835 5.9275 -2.67 4.855 -2.5 3.75 C-2.335 2.8425 -2.17 1.935 -2 1 C-1.34 0.67 -0.68 0.34 0 0 Z " fill="#0A818C" transform="translate(324,191)"/>
<path d="M0 0 C6.6 0.6 6.6 0.6 9 3 C9.3125 6.5 9.3125 6.5 9 10 C5.50434664 12.33043558 4.1134271 12.58763244 0 12 C-2.375 9.5 -2.375 9.5 -4 7 C-2.68 7 -1.36 7 0 7 C0.33 8.32 0.66 9.64 1 11 C1.66 11 2.32 11 3 11 C3 10.34 3 9.68 3 9 C4.65 9 6.3 9 8 9 C8 7.35 8 5.7 8 4 C7.01 4.33 6.02 4.66 5 5 C4.566875 4.525625 4.13375 4.05125 3.6875 3.5625 C1.97690387 1.76313043 1.97690387 1.76313043 -1 1 C-0.67 0.67 -0.34 0.34 0 0 Z " fill="#13777D" transform="translate(163,151)"/>
<path d="M0 0 C1.9375 0.9375 1.9375 0.9375 4 3 C4.49560182 5.29429464 4.68760769 7.50184605 4.82421875 9.84375 C4.92880231 12.18323957 4.92880231 12.18323957 6 15 C5.01 16.485 5.01 16.485 4 18 C4 17.01 4 16.02 4 15 C3.34 15 2.68 15 2 15 C1.46706165 13.25364835 0.94909337 11.50272348 0.4375 9.75 C0.14746094 8.77546875 -0.14257812 7.8009375 -0.44140625 6.796875 C-0.99249836 4.03756068 -0.93789609 2.6087176 0 0 Z " fill="#0B8289" transform="translate(51,192)"/>
<path d="M0 0 C2.625 0.9375 2.625 0.9375 5 2 C4.67 3.98 4.34 5.96 4 8 C1.03 7.505 1.03 7.505 -2 7 C-2 5.02 -2 3.04 -2 1 C-1.34 0.67 -0.68 0.34 0 0 Z " fill="#14757C" transform="translate(128,284)"/>
<path d="M0 0 C0.33 0 0.66 0 1 0 C0.91902776 3.58425201 0.80619302 7.16681439 0.6875 10.75 C0.66494141 11.76578125 0.64238281 12.7815625 0.61914062 13.828125 C0.5659668 15.29765625 0.5659668 15.29765625 0.51171875 16.796875 C0.48553467 17.69760742 0.45935059 18.59833984 0.43237305 19.52636719 C-0.07012061 22.4011643 -1.09621932 23.82804998 -3 26 C-2.88928305 22.79100859 -2.75885687 19.58310291 -2.625 16.375 C-2.5940625 15.47136719 -2.563125 14.56773437 -2.53125 13.63671875 C-2.31706465 8.74615328 -1.87645845 4.59198368 0 0 Z " fill="#1B7479" transform="translate(47,133)"/>
<path d="M0 0 C0.66 0.33 1.32 0.66 2 1 C1.01 2.98 0.02 4.96 -1 7 C-0.34 7.33 0.32 7.66 1 8 C0.67 9.65 0.34 11.3 0 13 C2.64 13.33 5.28 13.66 8 14 C8 14.33 8 14.66 8 15 C1.77777778 15.47863248 1.77777778 15.47863248 -1.4375 13.5 C-3.78057502 9.75107996 -3.48773804 7.38964238 -3 3 C-1.5 1 -1.5 1 0 0 Z " fill="#127C7F" transform="translate(158,212)"/>
<path d="M0 0 C2.67207435 2.67207435 3.09265348 5.12531667 4.125 8.75 C4.47820312 9.96171875 4.83140625 11.1734375 5.1953125 12.421875 C5.94639438 15.76163714 6.15669393 18.59451868 6 22 C5.34 22.33 4.68 22.66 4 23 C3.51890037 20.47952208 3.04007397 17.9586463 2.5625 15.4375 C2.42779297 14.73302734 2.29308594 14.02855469 2.15429688 13.30273438 C1.31861358 8.87972769 0.60374755 4.46069791 0 0 Z " fill="#112436" transform="translate(210,160)"/>
<path d="M0 0 C0.99 0.33 1.98 0.66 3 1 C-0.75 4 -0.75 4 -3 4 C-3 4.66 -3 5.32 -3 6 C-4.72526042 6.9765625 -6.45052083 7.953125 -8.17578125 8.9296875 C-9.81982289 9.89428581 -11.41400588 10.94267059 -13 12 C-13.33 11.01 -13.66 10.02 -14 9 C-13.67 8.34 -13.34 7.68 -13 7 C-9.9375 6.375 -9.9375 6.375 -7 6 C-7 5.34 -7 4.68 -7 4 C-4 2 -4 2 0 2 C0 1.34 0 0.68 0 0 Z " fill="#0E7C84" transform="translate(112,53)"/>
<path d="M0 0 C1.32 0 2.64 0 4 0 C3.67 2.97 3.34 5.94 3 9 C0.525 8.01 0.525 8.01 -2 7 C-1.125 1.125 -1.125 1.125 0 0 Z " fill="#078489" transform="translate(139,251)"/>
<path d="M0 0 C0.66 0.33 1.32 0.66 2 1 C1.74438677 3.3431213 1.40729228 5.67843403 1 8 C0.01 8.495 0.01 8.495 -1 9 C-1.66 8.67 -2.32 8.34 -3 8 C-3 7.34 -3 6.68 -3 6 C-3.66 6 -4.32 6 -5 6 C-5.33 5.01 -5.66 4.02 -6 3 C-5.195625 2.690625 -4.39125 2.38125 -3.5625 2.0625 C-1.10919595 1.23664655 -1.10919595 1.23664655 0 0 Z " fill="#07878E" transform="translate(60,108)"/>
<path d="M0 0 C-0.268125 0.66 -0.53625 1.32 -0.8125 2 C-2.25705047 5.64939067 -3.62871178 9.32245433 -5 13 C-5.99 12.67 -6.98 12.34 -8 12 C-7.690625 11.484375 -7.38125 10.96875 -7.0625 10.4375 C-5.70940713 7.33334577 -5.38640576 4.34884993 -5 1 C-2 0 -2 0 0 0 Z " fill="#157679" transform="translate(67,105)"/>
<path d="M0 0 C0.66 0.66 1.32 1.32 2 2 C1.625 4.625 1.625 4.625 1 7 C0.01 7.33 -0.98 7.66 -2 8 C-3.20882096 10.00016466 -3.20882096 10.00016466 -4 12 C-4.66 11.01 -5.32 10.02 -6 9 C-5.34 9 -4.68 9 -4 9 C-4 8.34 -4 7.68 -4 7 C-3.34 6.67 -2.68 6.34 -2 6 C-2 4.35 -2 2.7 -2 1 C-1.34 0.67 -0.68 0.34 0 0 Z " fill="#0C777B" transform="translate(296,267)"/>
<path d="M0 0 C0.66 0.33 1.32 0.66 2 1 C1.67 2.65 1.34 4.3 1 6 C-0.2375 6.28875 -1.475 6.5775 -2.75 6.875 C-5.72448742 7.61334794 -8.333856 8.44474933 -11 10 C-9.71937515 8.2925002 -8.38232443 6.62626404 -7 5 C-6.34 5 -5.68 5 -5 5 C-5 4.34 -5 3.68 -5 3 C-2.625 1.3125 -2.625 1.3125 0 0 Z " fill="#14787F" transform="translate(102,52)"/>
<path d="M0 0 C1.98 0.495 1.98 0.495 4 1 C4.33 2.32 4.66 3.64 5 5 C3.02 5.99 3.02 5.99 1 7 C0.34 6.34 -0.32 5.68 -1 5 C-0.625 2.375 -0.625 2.375 0 0 Z " fill="#14777A" transform="translate(147,123)"/>
<path d="M0 0 C0.99 0 1.98 0 3 0 C4.73745313 2.65728125 5.00831972 3.89600355 4.75 7.125 C4 10 4 10 2 12 C0.875 4.375 0.875 4.375 2 1 C1.34 0.67 0.68 0.34 0 0 Z " fill="#14777B" transform="translate(154,232)"/>
<path d="M0 0 C0.99 0.99 1.98 1.98 3 3 C0.94766315 5.2477975 -0.00667261 6.0022242 -3 7 C-4.66710346 8.49985609 -4.66710346 8.49985609 -6 10 C-6.99 9.67 -7.98 9.34 -9 9 C-8.34 9 -7.68 9 -7 9 C-7 8.34 -7 7.68 -7 7 C-6.34 7 -5.68 7 -5 7 C-4.67 6.01 -4.34 5.02 -4 4 C-2.70644173 2.62804426 -1.37701298 1.28817344 0 0 Z " fill="#0E7478" transform="translate(262,292)"/>
<path d="M0 0 C1.98 0 3.96 0 6 0 C5.4739075 3.78786597 4.61896089 6.17152224 2 9 C1.34 9 0.68 9 0 9 C-0.33 9.66 -0.66 10.32 -1 11 C-0.625 9.0625 -0.625 9.0625 0 7 C0.66 6.67 1.32 6.34 2 6 C2.72159424 4.35636866 3.39351421 2.68949614 4 1 C3.34 1 2.68 1 2 1 C2 1.66 2 2.32 2 3 C1.34 2.67 0.68 2.34 0 2 C0 1.34 0 0.68 0 0 Z " fill="#0F2233" transform="translate(229,265)"/>
<path d="M0 0 C0.5625 1.9375 0.5625 1.9375 1 4 C0.67 4.33 0.34 4.66 0 5 C-0.07148199 6.35243917 -0.08399454 7.70834367 -0.0625 9.0625 C-0.041875 10.361875 -0.02125 11.66125 0 13 C-1.32 12.67 -2.64 12.34 -4 12 C-3.45660208 7.43545749 -2.20536179 4.0271824 0 0 Z " fill="#157B80" transform="translate(308,233)"/>
<path d="M0 0 C0.66 0.99 1.32 1.98 2 3 C1.67 3.515625 1.34 4.03125 1 4.5625 C-0.32010877 7.78026512 -0.13242105 10.5570528 0 14 C-1.32 14.33 -2.64 14.66 -4 15 C-3.71743908 13.06115111 -3.4236207 11.12394039 -3.125 9.1875 C-2.96257812 8.10855469 -2.80015625 7.02960938 -2.6328125 5.91796875 C-2 3 -2 3 0 0 Z " fill="#0E777C" transform="translate(320,196)"/>
<path d="M0 0 C-2.6234008 2.91488977 -5.71816394 4.88503898 -9 7 C-8.25 2.25 -8.25 2.25 -6 0 C-2.44444444 -1.22222222 -2.44444444 -1.22222222 0 0 Z " fill="#0E2133" transform="translate(145,295)"/>
<path d="M0 0 C2 1 2 1 4 3 C4.36933645 5.75372909 4.18336678 8.20365661 4 11 C2.02 11.99 2.02 11.99 0 13 C0 12.01 0 11.02 0 10 C0.66 10 1.32 10 2 10 C1.54177532 6.53058454 1.10868317 3.32604951 0 0 Z " fill="#157579" transform="translate(174,170)"/>
<path d="M0 0 C4.62 1.65 9.24 3.3 14 5 C12.68 5.33 11.36 5.66 10 6 C9.34 6.268125 8.68 6.53625 8 6.8125 C7.34 6.874375 6.68 6.93625 6 7 C3.875 5.125 3.875 5.125 2 3 C1.34 2.67 0.68 2.34 0 2 C0 1.34 0 0.68 0 0 Z " fill="#0A1C2C" transform="translate(109,84)"/>
<path d="M0 0 C0.33 0.99 0.66 1.98 1 3 C1.66 3.33 2.32 3.66 3 4 C-3.625 7.125 -3.625 7.125 -7 6 C-6.34 6 -5.68 6 -5 6 C-5 5.34 -5 4.68 -5 4 C-4.34 4 -3.68 4 -3 4 C-3 3.34 -3 2.68 -3 2 C-2.01 1.34 -1.02 0.68 0 0 Z " fill="#126B75" transform="translate(243,310)"/>
<path d="M0 0 C0.99 0.33 1.98 0.66 3 1 C3.625 3.375 3.625 3.375 4 6 C3.34 6.66 2.68 7.32 2 8 C1.34 8 0.68 8 0 8 C-0.99 8.495 -0.99 8.495 -2 9 C-1.34 6.03 -0.68 3.06 0 0 Z " fill="#0C2945" transform="translate(159,110)"/>
<path d="M0 0 C-3.77371512 1.3357457 -6.85831347 0.72408671 -10.75 0.0625 C-12.50570312 -0.22947266 -12.50570312 -0.22947266 -14.296875 -0.52734375 C-15.18890625 -0.68332031 -16.0809375 -0.83929688 -17 -1 C-17 -1.33 -17 -1.66 -17 -2 C-10.49292608 -3.36194571 -6.19264675 -2.16022561 0 0 Z " fill="#1F777E" transform="translate(217,35)"/>
<path d="M0 0 C0.33 0.66 0.66 1.32 1 2 C1.66 2 2.32 2 3 2 C4.32 4.64 5.64 7.28 7 10 C5 10 5 10 3.45703125 8.57421875 C2.91433594 7.95160156 2.37164062 7.32898438 1.8125 6.6875 C1.26207031 6.07261719 0.71164063 5.45773438 0.14453125 4.82421875 C-0.23316406 4.22222656 -0.61085938 3.62023437 -1 3 C-0.67 2.01 -0.34 1.02 0 0 Z " fill="#196E72" transform="translate(74,240)"/>
<path d="M0 0 C1.32 0.99 2.64 1.98 4 3 C3.67 4.65 3.34 6.3 3 8 C0.5625 7.1875 0.5625 7.1875 -2 6 C-2.33 5.01 -2.66 4.02 -3 3 C-2.01 2.67 -1.02 2.34 0 2 C0 1.34 0 0.68 0 0 Z " fill="#072032" transform="translate(153,112)"/>
<path d="M0 0 C0.66 0 1.32 0 2 0 C2.625 2.875 2.625 2.875 3 6 C0.5 8.5 0.5 8.5 -2 11 C-1.34 7.37 -0.68 3.74 0 0 Z " fill="#0D2336" transform="translate(186,206)"/>
<path d="M0 0 C0.66 0 1.32 0 2 0 C2.33 1.65 2.66 3.3 3 5 C2.01 5.33 1.02 5.66 0 6 C-0.33 6.66 -0.66 7.32 -1 8 C-1.66 7.34 -2.32 6.68 -3 6 C-2.01 4.02 -1.02 2.04 0 0 Z " fill="#107479" transform="translate(57,104)"/>
<path d="M0 0 C1.32 0.33 2.64 0.66 4 1 C4 2.65 4 4.3 4 6 C1.03 5.505 1.03 5.505 -2 5 C-1.34 3.35 -0.68 1.7 0 0 Z " fill="#0E8087" transform="translate(134,268)"/>
<path d="M0 0 C0.66 0 1.32 0 2 0 C2.66 3.3 3.32 6.6 4 10 C3.01 10 2.02 10 1 10 C0.22157062 6.59437148 -0.09978121 3.49234244 0 0 Z " fill="#0E6B88" transform="translate(320,137)"/>
<path d="M0 0 C0.33 0 0.66 0 1 0 C1.33 5.28 1.66 10.56 2 16 C1.01 16 0.02 16 -1 16 C-0.67 10.72 -0.34 5.44 0 0 Z " fill="#14757D" transform="translate(322,170)"/>
<path d="M0 0 C0.86625 0.556875 0.86625 0.556875 1.75 1.125 C0.1 1.125 -1.55 1.125 -3.25 1.125 C-3.25 2.445 -3.25 3.765 -3.25 5.125 C-4.57 4.795 -5.89 4.465 -7.25 4.125 C-6.25 1.125 -6.25 1.125 -4.4375 -0.1875 C-2.25 -0.875 -2.25 -0.875 0 0 Z " fill="#117477" transform="translate(159.25,135.875)"/>
<path d="M0 0 C0.99 0.66 1.98 1.32 3 2 C3 2.99 3 3.98 3 5 C2.01 4.34 1.02 3.68 0 3 C-0.99 3.66 -1.98 4.32 -3 5 C-3.66 4.34 -4.32 3.68 -5 3 C-3.35 2.01 -1.7 1.02 0 0 Z " fill="#042237" transform="translate(259,274)"/>
<path d="M0 0 C0.99 0.33 1.98 0.66 3 1 C2.67 1.66 2.34 2.32 2 3 C2.66 3.33 3.32 3.66 4 4 C3.67 4.66 3.34 5.32 3 6 C0 5 0 5 -1.1875 2.9375 C-1.5896875 1.9784375 -1.5896875 1.9784375 -2 1 C-1.34 0.67 -0.68 0.34 0 0 Z " fill="#0D2944" transform="translate(262,273)"/>
<path d="M0 0 C0.66 0.33 1.32 0.66 2 1 C1.04882866 2.1725131 0.08882991 3.33787015 -0.875 4.5 C-1.40867188 5.1496875 -1.94234375 5.799375 -2.4921875 6.46875 C-2.98976562 6.9740625 -3.48734375 7.479375 -4 8 C-4.66 8 -5.32 8 -6 8 C-5.67 6.68 -5.34 5.36 -5 4 C-4.34 4 -3.68 4 -3 4 C-3 3.34 -3 2.68 -3 2 C-2.01 1.34 -1.02 0.68 0 0 Z " fill="#0E2238" transform="translate(181,259)"/>
<path d="M0 0 C1.32 0.66 2.64 1.32 4 2 C3.195625 2.61875 2.39125 3.2375 1.5625 3.875 C-1.03874519 5.74164041 -1.03874519 5.74164041 -2 8 C-2.66 7.67 -3.32 7.34 -4 7 C-1.125 1.125 -1.125 1.125 0 0 Z " fill="#0A1F35" transform="translate(169,243)"/>
<path d="M0 0 C-0.61875 0.0825 -1.2375 0.165 -1.875 0.25 C-4.18437567 0.81258459 -4.18437567 0.81258459 -5.25 3.0625 C-5.4975 3.701875 -5.745 4.34125 -6 5 C-6.99 4.67 -7.98 4.34 -9 4 C-9 3.34 -9 2.68 -9 2 C-5.5647952 -0.29013653 -4.014669 -0.17842973 0 0 Z " fill="#0D7578" transform="translate(154,231)"/>
<path d="M0 0 C0.66 0.33 1.32 0.66 2 1 C2.625 3.0625 2.625 3.0625 3 5 C2.01 5.66 1.02 6.32 0 7 C-0.99 5.02 -1.98 3.04 -3 1 C-2.34 1 -1.68 1 -1 1 C-0.67 0.67 -0.34 0.34 0 0 Z " fill="#19757A" transform="translate(64,223)"/>
<path d="M0 0 C1.0625 1.8125 1.0625 1.8125 2 4 C1 7 1 7 -1.0625 8.1875 C-1.701875 8.455625 -2.34125 8.72375 -3 9 C-2.67 7.35 -2.34 5.7 -2 4 C-1.34 4 -0.68 4 0 4 C0 2.68 0 1.36 0 0 Z " fill="#106F6F" transform="translate(162,137)"/>
<path d="M0 0 C0.66 1.32 1.32 2.64 2 4 C1.34 4 0.68 4 0 4 C-0.66 5.32 -1.32 6.64 -2 8 C-2.66 8 -3.32 8 -4 8 C-3.34 6.02 -2.68 4.04 -2 2 C-1.34 2 -0.68 2 0 2 C0 1.34 0 0.68 0 0 Z " fill="#0E7676" transform="translate(66,89)"/>
<path d="M0 0 C5.66153846 2.46153846 5.66153846 2.46153846 7.375 5.1875 C7.58125 5.785625 7.7875 6.38375 8 7 C5.0280615 5.87548273 2.66559313 4.77706209 0 3 C0 2.01 0 1.02 0 0 Z " fill="#145465" transform="translate(247,45)"/>
<path d="M0 0 C0 0.33 0 0.66 0 1 C-3.63 0.67 -7.26 0.34 -11 0 C-11 -0.33 -11 -0.66 -11 -1 C-3.57142857 -2.42857143 -3.57142857 -2.42857143 0 0 Z " fill="#0F2336" transform="translate(140,324)"/>
<path d="M0 0 C1.65 0.33 3.3 0.66 5 1 C5 3 5 3 3.5 4.625 C3.005 5.07875 2.51 5.5325 2 6 C1.01 5.67 0.02 5.34 -1 5 C-0.34 4.67 0.32 4.34 1 4 C0.67 2.68 0.34 1.36 0 0 Z " fill="#0A757D" transform="translate(286,278)"/>
<path d="M0 0 C0.99 0.33 1.98 0.66 3 1 C-0.75 4 -0.75 4 -3 4 C-3 4.66 -3 5.32 -3 6 C-3.66 6 -4.32 6 -5 6 C-4.67 4.68 -4.34 3.36 -4 2 C-2.68 2 -1.36 2 0 2 C0 1.34 0 0.68 0 0 Z " fill="#137278" transform="translate(112,53)"/>
<path d="M0 0 C1.98 0.99 3.96 1.98 6 3 C5.67 3.99 5.34 4.98 5 6 C4.67 5.34 4.34 4.68 4 4 C2.02111039 3.27306096 0.02045442 2.60183749 -2 2 C-1.34 1.34 -0.68 0.68 0 0 Z " fill="#0C8285" transform="translate(241,42)"/>
<path d="M0 0 C0.99 0 1.98 0 3 0 C3.33 1.98 3.66 3.96 4 6 C3.34 6 2.68 6 2 6 C2 5.34 2 4.68 2 4 C1.01 3.67 0.02 3.34 -1 3 C-0.67 2.01 -0.34 1.02 0 0 Z " fill="#107E84" transform="translate(61,220)"/>
<path d="M0 0 C0.99 0.33 1.98 0.66 3 1 C1.02 3.31 -0.96 5.62 -3 8 C-3.33 7.34 -3.66 6.68 -4 6 C-2.68 4.02 -1.36 2.04 0 0 Z " fill="#0C2031" transform="translate(260,112)"/>
<path d="M0 0 C0.99 0.33 1.98 0.66 3 1 C1.02 3.97 1.02 3.97 -1 7 C-1.625 5.1875 -1.625 5.1875 -2 3 C-1.34 2.01 -0.68 1.02 0 0 Z " fill="#107277" transform="translate(78,83)"/>
<path d="M0 0 C4 1 4 1 4 1 Z " fill="#0F1820" transform="translate(86,310)"/>
<path d="M0 0 C0.66 0.66 1.32 1.32 2 2 C1.34 2 0.68 2 0 2 C0 1.34 0 0.68 0 0 Z " fill="#35605C" transform="translate(82,251)"/>
<path d="M0 0 C0.66 0.66 1.32 1.32 2 2 C1.34 2 0.68 2 0 2 C0 1.34 0 0.68 0 0 Z " fill="#13666B" transform="translate(319,134)"/>
<path d="" fill="#18504E" transform="translate(0,0)"/>
<path d="" fill="#000000" transform="translate(0,0)"/>
<path d="" fill="#375B5B" transform="translate(0,0)"/>
<path d="" fill="#1F6160" transform="translate(0,0)"/>
<path d="" fill="#008080" transform="translate(0,0)"/>
<path d="" fill="#0D1725" transform="translate(0,0)"/>
<path d="" fill="#000000" transform="translate(0,0)"/>
<path d="" fill="#485252" transform="translate(0,0)"/>
</svg>
